<?xml version="1.0" standalone="no"?>
<!DOCTYPE svg PUBLIC "-//W3C//DTD SVG 20010904//EN"
 "http://www.w3.org/TR/2001/REC-SVG-20010904/DTD/svg10.dtd">
<svg version="1.0" xmlns="http://www.w3.org/2000/svg"
 width="256.000000pt" height="256.000000pt" viewBox="0 0 256.000000 256.000000"
 preserveAspectRatio="xMidYMid meet">

<g transform="translate(0.000000,256.000000) scale(0.100000,-0.100000)"
fill="#000000" stroke="none">
<path d="M794 2457 c-159 -65 -340 -189 -449 -309 -368 -404 -445 -969 -197
-1452 53 -103 142 -228 218 -303 l53 -53 862 0 863 0 52 54 c230 237 356 549
357 881 1 217 -38 385 -133 575 -136 270 -360 482 -639 602 l-76 33 -415 2
-415 3 -81 -33z m661 -432 l30 -25 -73 -73 c-39 -40 -72 -78 -72 -85 0 -26 28
-9 90 53 35 36 69 65 75 65 5 -1 21 -10 34 -21 l24 -19 -57 -60 c-53 -55 -63
-80 -33 -80 6 0 35 23 64 52 l53 52 27 -27 28 -27 -75 -75 c-59 -59 -72 -77
-62 -87 10 -10 28 3 87 62 l75 75 27 -28 27 -27 -59 -60 c-49 -50 -56 -60 -41
-66 13 -5 32 7 70 45 28 28 57 51 63 51 6 0 18 -12 28 -26 l17 -26 -72 -73
c-66 -67 -80 -95 -47 -95 7 0 44 31 82 70 l69 70 23 -22 c13 -12 23 -24 23
-28 0 -3 -23 -32 -51 -64 -39 -43 -49 -60 -40 -69 8 -8 26 3 69 46 l58 57 27
-27 27 -28 -77 -77 c-64 -64 -74 -78 -59 -84 13 -5 36 11 90 65 l72 71 27 -28
c49 -51 43 -61 -150 -254 l-178 -178 -340 335 -340 335 180 180 c196 196 204
201 260 155z m-125 -700 l335 -335 -23 -22 -22 -23 -337 337 c-334 334 -337
337 -318 358 10 11 21 20 24 20 3 0 157 -151 341 -335z m232 -438 c-84 -90
-202 -72 -304 44 -28 32 -54 59 -58 59 -4 0 -110 -104 -236 -231 -126 -127
-238 -235 -249 -241 -43 -24 -76 -12 -142 54 -57 56 -63 67 -63 103 0 39 5 45
240 273 132 129 240 239 240 246 0 6 -30 41 -66 76 -71 70 -94 110 -94 164 0
48 16 85 53 124 l31 32 338 -337 338 -337 -28 -29z"/>
<path d="M647 742 c-41 -45 -8 -112 54 -112 53 0 81 77 41 113 -25 22 -75 21
-95 -1z m73 -27 c15 -18 7 -43 -16 -52 -24 -9 -46 24 -33 48 12 23 32 24 49 4z"/>
</g>
</svg>
